<?xml version="1.0" encoding="utf-8"?>
<!-- Generator: Adobe Illustrator 26.5.0, SVG Export Plug-In . SVG Version: 6.00 Build 0)  -->
<svg version="1.1" id="Calque_1" xmlns="http://www.w3.org/2000/svg" xmlns:xlink="http://www.w3.org/1999/xlink" x="0px" y="0px"
	 viewBox="0 0 200 50" style="enable-background:new 0 0 200 50;" xml:space="preserve">
<style type="text/css">
	.st0{fill:#D13736;}
</style>
<g>
	<g>
		<path class="st0" d="M151.5,27.94c-0.33-1.05-0.98-1.56-1.96-1.56c-0.94,0-1.63,0.51-1.96,1.56v8.53c0,0.25-0.07,0.29-0.22,0.25
			l-5.23-9.22c-0.69-1.23-1.78-1.6-3.23-1.05c-0.47,0.22-1.02,0.76-1.56,1.6c-0.15,0.22-0.22,0.47-0.22,0.84v14.27
			c-0.11,1.05,0.58,1.63,2.11,1.78c1.2,0.07,1.85-0.51,2-1.78v-8.75l0.18-0.11l5.45,9.81c0.4,0.62,1.05,0.91,1.96,0.84
			c1.38,0.15,2.29-0.44,2.69-1.78V27.94z"/>
		<path class="st0" d="M158.11,28.56c0.07-1.38-0.65-2.11-2.11-2.11c-1.45,0-2.22,0.73-2.29,2.11v14.2
			c-0.04,1.38,0.65,2.07,2.11,2.07c1.45,0,2.22-0.73,2.29-2.18V28.56z"/>
		<path class="st0" d="M135.99,43.7c0.25-0.69,0.25-1.23,0-1.56l-7.01-9.73l-3.96-5.19c-0.4-0.58-1.09-0.91-2-1.05
			c-1.16,0-1.82,0.54-1.96,1.67v15.03c0.15,1.38,0.87,2.07,2.18,2.07c1.05-0.18,1.67-0.69,1.85-1.56l0.11-2.07
			c0.07-0.07,1.78-0.07,5.16,0l2.58,3.34l1.05,0.29C135.04,44.79,135.7,44.39,135.99,43.7z M127.31,36.91
			c0.07,0.07,0.04,0.18-0.11,0.33h-2v-3.16L127.31,36.91z"/>
		<path class="st0" d="M165.3,27.51c-0.69-1.23-1.78-1.6-3.23-1.05c-0.84,0.36-1.34,0.91-1.56,1.6c-0.22,0.22-0.33,0.44-0.33,0.73
			v14.31l0.11,0.07c-0.11,1.05,0.54,1.63,2,1.78c1.16,0.07,1.85-0.54,2.07-1.85v-8.68c0.07-0.15,0.15-0.18,0.22-0.11l5.45,9.7
			c0.4,0.62,1.02,0.94,1.85,0.94c1.38,0.15,2.29-0.47,2.72-1.85l0.11-0.65v-14.6c-0.36-0.98-1.02-1.45-2-1.45
			c-0.94,0-1.63,0.47-1.96,1.45v8.53c0,0.22-0.07,0.36-0.22,0.36L165.3,27.51z"/>
		<path class="st0" d="M103.85,13.02c0-1.63-0.87-2.51-2.61-2.51c-1.67,0-2.51,0.87-2.51,2.51c0,1.67,0.84,2.51,2.51,2.51
			C102.98,15.52,103.85,14.69,103.85,13.02z"/>
		<path class="st0" d="M107.92,11.35c-1.67,0-2.51,0.84-2.51,2.51s0.84,2.51,2.51,2.51c1.74,0,2.61-0.84,2.61-2.51
			S109.66,11.35,107.92,11.35z"/>
		<path class="st0" d="M101.23,9.75c1.74,0,2.61-0.8,2.61-2.47c0-1.67-0.87-2.51-2.61-2.51c-1.67,0-2.51,0.84-2.51,2.51
			C98.73,8.95,99.56,9.75,101.23,9.75z"/>
		<path class="st0" d="M109.15,10.73c1.67,0,2.51-0.84,2.51-2.51s-0.84-2.51-2.51-2.51c-1.67,0-2.51,0.84-2.51,2.51
			S107.48,10.73,109.15,10.73z"/>
		<path class="st0" d="M116.67,13.45c1.67,0,2.51-0.87,2.51-2.51c0-1.74-0.84-2.61-2.51-2.61c-1.67,0-2.51,0.87-2.51,2.61
			C114.16,12.58,115,13.45,116.67,13.45z"/>
		<path class="st0" d="M86.02,8.33c-1.74,0-2.61,0.87-2.61,2.61c0,1.63,0.87,2.51,2.61,2.51c1.67,0,2.47-0.87,2.47-2.51
			C88.49,9.2,87.69,8.33,86.02,8.33z"/>
		<path class="st0" d="M95.93,8.22c0-1.67-0.87-2.51-2.54-2.51c-1.63,0-2.51,0.84-2.51,2.51s0.87,2.51,2.51,2.51
			C95.06,10.73,95.93,9.89,95.93,8.22z"/>
		<path class="st0" d="M94.77,16.69c1.67,0,2.51-0.87,2.51-2.61c0-1.67-0.84-2.51-2.51-2.51c-1.74,0-2.61,0.84-2.61,2.51
			C92.15,15.81,93.03,16.69,94.77,16.69z"/>
		<path class="st0" d="M88.92,21.26c0.22,0.62,0.65,0.76,1.34,0.44c7.95-4.1,15.4-4.1,22.33,0c0.84,0.47,1.34,0.33,1.56-0.44
			c0.15-0.4,0.04-0.76-0.33-1.05l-1.96-1.13c-2.22-0.98-4.25-1.63-6.03-1.89c-2.18-0.44-4.32-0.51-6.5-0.33
			c-2.72,0.22-5.19,0.8-7.41,1.78l-1.96,0.84C89.07,20.06,88.7,20.64,88.92,21.26z"/>
		<path class="st0" d="M88.6,18.76c1.67,0,2.51-0.84,2.51-2.51s-0.84-2.51-2.51-2.51c-1.67,0-2.47,0.84-2.47,2.51
			S86.93,18.76,88.6,18.76z"/>
		<path class="st0" d="M89.87,26.27c-1.49,0.07-2.18,0.76-2.11,2.11v15.43c0,0.84,0.51,1.2,1.56,1.13h6.9
			c1.34,0,2.03-0.62,2.11-1.85c0-1.2-0.58-1.89-1.71-2.11h-4.47c-0.15-0.07-0.22-0.18-0.22-0.4V28.45
			C91.94,26.93,91.25,26.2,89.87,26.27z"/>
		<path class="st0" d="M90.16,22.93l0.44,0.51c0.33,0.07,0.73-0.04,1.13-0.29c6.39-3.49,13.04-3.41,19.94,0.22
			c0.29,0.11,0.65,0.11,1.13,0c0.22-0.29,0.15-0.62-0.25-0.98c-2.87-1.78-6.17-2.76-9.95-2.91c-4.29-0.18-8.35,0.73-12.2,2.8
			C90.23,22.5,90.16,22.71,90.16,22.93z"/>
		<path class="st0" d="M74.51,29.61c0.51-0.47,0.65-1.09,0.44-1.78c-0.15-0.69-0.54-1.16-1.23-1.38c-0.65-0.18-1.2-0.07-1.71,0.33
			c-0.84,0.65-2.4,2.36-4.68,5.12h-0.29l-3.27-3.45c-0.87-1.02-1.6-1.67-2.07-1.89c-0.84-0.25-1.53-0.15-2.07,0.33
			c-0.51,0.51-0.73,1.09-0.65,1.89c0.07,0.47,0.8,1.49,2.22,2.94l3.96,4.47l0.18,6.9L65.64,44c0.29,0.62,0.8,0.94,1.56,0.94
			c1.31,0,2-0.58,2-1.78v-7.08L74.51,29.61z"/>
		<path class="st0" d="M85.25,27.83c-0.15-1.13-0.8-1.63-1.96-1.56c-0.87,0-1.53,0.29-2,0.94l-3.99,5.19l-6.97,9.73
			c-0.25,0.4-0.25,0.94,0,1.56c0.36,0.84,1.02,1.23,2,1.23l1.05-0.29l2.61-3.34h5.08c0,0.91,0.04,1.63,0.11,2.18
			c0.22,0.76,0.84,1.27,1.89,1.45c1.27,0.22,2-0.44,2.18-1.96V27.83z M81.08,34.19v3.05c0,0.07-0.33,0.07-0.94,0h-1.02
			c-0.18,0-0.18-0.11-0.11-0.33L81.08,34.19z"/>
		<path class="st0" d="M111.77,16.25c0,1.67,0.84,2.51,2.51,2.51s2.51-0.84,2.51-2.51s-0.84-2.51-2.51-2.51
			S111.77,14.58,111.77,16.25z"/>
		<path class="st0" d="M114.93,26.78c-1.89-0.47-3.7-0.33-5.45,0.44c-3.27,1.38-5.16,3.81-5.63,7.34c-0.44,3.92,0.94,6.94,4.18,8.93
			c1.96,1.16,3.67,1.67,5.19,1.45c3.23-0.25,5.41-1.42,6.57-3.41c0.29-0.51,0.22-1.13-0.18-1.89c-0.51-1.13-1.34-1.34-2.51-0.65
			c-2.03,1.45-3.74,2.07-5.12,1.78c-1.38-0.25-2.47-0.94-3.23-2.07c-0.69-1.09-0.94-2.4-0.73-3.89c0.18-1.34,0.87-2.43,2.07-3.2
			c1.13-0.87,2.4-1.13,3.85-0.87l1.78,0.87l1.67,1.02c0.73,0.36,1.38,0.11,2.11-0.73c0.62-0.91,0.69-1.63,0.18-2.18
			C118.45,28.16,116.85,27.22,114.93,26.78z"/>
		<path class="st0" d="M34.67,26.45c-1.27,0.15-2.47,0.69-3.67,1.6c-1.05,0.91-1.56,2.18-1.56,3.78v6.14c0,2.91,0.15,4.76,0.4,5.52
			c0.07,0.62,0.44,1.09,1.05,1.34c0.54,0.36,1.13,0.36,1.67,0c0.62-0.33,1.02-0.84,1.16-1.56v-4.68c0.15-0.29,0.33-0.29,0.62,0
			l4.9,6.14c0.47,0.44,1.05,0.51,1.67,0.22c0.69-0.33,1.16-0.84,1.34-1.56c0.15-0.47-0.15-1.23-0.94-2.29l-2.18-3.34
			c1.45-1.23,2.29-2.65,2.51-4.29c0.15-1.38-0.11-2.72-0.8-3.96c-0.8-1.27-1.78-2.07-3.05-2.51C36.74,26.53,35.68,26.35,34.67,26.45
			z M35.46,34.63c-1.45,0-2.18-0.65-2.18-2c0-1.31,0.73-1.96,2.18-1.96s2.22,0.65,2.22,1.96C37.68,33.97,36.92,34.63,35.46,34.63z"
			/>
		<path class="st0" d="M51.44,26.45c-2.58,0-4.76,0.94-6.54,2.76c-1.82,1.78-2.72,3.99-2.72,6.57c0,2.54,0.91,4.72,2.72,6.54
			c1.78,1.82,3.96,2.72,6.54,2.72c2.58,0,4.76-0.91,6.57-2.72c1.82-1.82,2.72-3.99,2.72-6.54c0-2.58-0.91-4.79-2.72-6.57
			C56.2,27.4,54.02,26.45,51.44,26.45z M51.44,40.76c-1.31,0-2.47-0.47-3.56-1.45c-0.98-0.98-1.45-2.14-1.45-3.52
			c0-1.42,0.47-2.58,1.45-3.6c1.02-0.94,2.18-1.45,3.56-1.45c1.42,0,2.58,0.51,3.56,1.45c0.94,1.02,1.45,2.18,1.45,3.6
			c0,1.38-0.51,2.54-1.45,3.52C54.02,40.29,52.86,40.76,51.44,40.76z"/>
	</g>
</g>
</svg>
